<svg xmlns="http://www.w3.org/2000/svg" xmlns:xlink="http://www.w3.org/1999/xlink" xmlns:lucid="lucid" width="940.5" height="900.5"><g transform="translate(-1240 -80)" lucid:page-tab-id="0_0"><path d="M1355.07 463.42a8.66 8.66 0 0 1 9.86 0l80.14 55.5a4.16 4.16 0 0 1 0 6.83l-80.14 55.5a8.66 8.66 0 0 1-9.86 0l-80.14-55.5a4.16 4.16 0 0 1 0-6.83z" stroke="#3a414a" fill="#fff"/><use xlink:href="#a" transform="matrix(1,0,0,1,1275,465) translate(60.819814814814826 39.416666666666664)"/><use xlink:href="#b" transform="matrix(1,0,0,1,1275,465) translate(90.67166666666667 39.416666666666664)"/><use xlink:href="#c" transform="matrix(1,0,0,1,1275,465) translate(17.282777777777802 55.416666666666664)"/><use xlink:href="#d" transform="matrix(1,0,0,1,1275,465) translate(83.09759259259259 55.416666666666664)"/><use xlink:href="#e" transform="matrix(1,0,0,1,1275,465) translate(25.042037037037073 71.41666666666666)"/><use xlink:href="#f" transform="matrix(1,0,0,1,1275,465) translate(40.56055555555558 71.41666666666666)"/><use xlink:href="#g" transform="matrix(1,0,0,1,1275,465) translate(130.89388888888885 71.41666666666666)"/><use xlink:href="#h" transform="matrix(1,0,0,1,1275,465) translate(47.264259259259276 87.41666666666666)"/><use xlink:href="#i" transform="matrix(1,0,0,1,1275,465) translate(69.48648148148149 87.41666666666666)"/><path d="M1400 640c22.1 0 40 17.9 40 40s-17.9 40-40 40h-80c-22.1 0-40-17.9-40-40s17.9-40 40-40z" stroke="#3a414a" fill="#fff"/><use xlink:href="#j" transform="matrix(1,0,0,1,1285,645) translate(36.16666666666668 40.06249999999999)"/><use xlink:href="#k" transform="matrix(1,0,0,1,1285,645) translate(67.22222222222223 40.06249999999999)"/><path d="M1595.2 468.27a8 8 0 0 1 9.6 0l70.4 52.8a4.5 4.5 0 0 1 0 7.2l-70.4 52.8a8 8 0 0 1-9.6 0l-70.4-52.8a4.5 4.5 0 0 1 0-7.2z" stroke="#3a414a" fill="#fff"/><use xlink:href="#l" transform="matrix(1,0,0,1,1525,469.66666666666663) translate(61.930925925925926 24.416666666666664)"/><use xlink:href="#h" transform="matrix(1,0,0,1,1525,469.66666666666663) translate(40.967962962962986 40.41666666666666)"/><use xlink:href="#m" transform="matrix(1,0,0,1,1525,469.66666666666663) translate(63.19018518518519 40.41666666666666)"/><use xlink:href="#h" transform="matrix(1,0,0,1,1525,469.66666666666663) translate(29.11611111111113 56.41666666666666)"/><use xlink:href="#n" transform="matrix(1,0,0,1,1525,469.66666666666663) translate(51.338333333333345 56.41666666666666)"/><use xlink:href="#o" transform="matrix(1,0,0,1,1525,469.66666666666663) translate(87.56055555555555 56.41666666666666)"/><use xlink:href="#b" transform="matrix(1,0,0,1,1525,469.66666666666663) translate(102.37537037037036 56.41666666666666)"/><use xlink:href="#p" transform="matrix(1,0,0,1,1525,469.66666666666663) translate(25.301296296296325 72.41666666666666)"/><use xlink:href="#q" transform="matrix(1,0,0,1,1525,469.66666666666663) translate(100.30129629629629 72.41666666666666)"/><use xlink:href="#r" transform="matrix(1,0,0,1,1525,469.66666666666663) translate(50.20870370370371 88.41666666666666)"/><path d="M1694.5 525.64h-16v-1.95h16zm39.7 0h-9.1v-1.95h9.1z" stroke="#008a0e" stroke-width=".05" fill="#008a0e"/><path d="M1678.53 525.64h-1.13l.1-.97-.08-.93 1.1-.05z" fill="#008a0e"/><path stroke="#008a0e" stroke-width=".05" fill="#008a0e"/><path d="M1749.47 524.67l-14.26 4.63v-9.27z" fill="#008a0e"/><path d="M1752.63 524.67l-18.4 5.97V518.7zm-16.45 3.3l10.14-3.3-10.14-3.3z" stroke="#008a0e" stroke-width=".05" fill="#008a0e"/><use xlink:href="#s" transform="matrix(1,0,0,1,1694.4878121195027,514.0000001461557) translate(0 14.222222222222223)"/><path d="M1835 468a9 9 0 0 1 10 0l80 53.34a4 4 0 0 1 0 6.65l-80 53.34a9 9 0 0 1-10 0L1755 528a4 4 0 0 1 0-6.66z" stroke="#3a414a" fill="#fff"/><use xlink:href="#t" transform="matrix(1,0,0,1,1755,469.6666668128223) translate(68.70870370370372 17.541666666666664)"/><use xlink:href="#b" transform="matrix(1,0,0,1,1755,469.6666668128223) translate(82.78277777777778 17.541666666666664)"/><use xlink:href="#u" transform="matrix(1,0,0,1,1755,469.6666668128223) translate(49.356851851851864 33.54166666666666)"/><use xlink:href="#v" transform="matrix(1,0,0,1,1755,469.6666668128223) translate(41.72722222222224 49.54166666666666)"/><use xlink:href="#w" transform="matrix(1,0,0,1,1755,469.6666668128223) translate(120.87537037037035 49.54166666666666)"/><use xlink:href="#x" transform="matrix(1,0,0,1,1755,469.6666668128223) translate(24.70870370370373 65.54166666666666)"/><use xlink:href="#y" transform="matrix(1,0,0,1,1755,469.6666668128223) translate(97.19018518518517 65.54166666666666)"/><use xlink:href="#z" transform="matrix(1,0,0,1,1755,469.6666668128223) translate(134.19018518518516 65.54166666666666)"/><use xlink:href="#h" transform="matrix(1,0,0,1,1755,469.6666668128223) translate(47.264259259259276 81.54166666666666)"/><use xlink:href="#i" transform="matrix(1,0,0,1,1755,469.6666668128223) translate(69.48648148148149 81.54166666666666)"/><path d="M1600.97 586.2h-1.94v-2.03h1.94z" stroke="#e81313" stroke-width=".05" fill="#e81313"/><path d="M1600 583.17l.97-.06v1.1h-1.94v-1.1z" fill="#e81313"/><path stroke="#e81313" stroke-width=".05" fill="#e81313"/><path d="M1600 618.26l-4.35-13.38h8.7z" fill="#e81313"/><path d="M1600 621.42l-5.37-16.54h10.74zm-3.3-16.45l3.3 10.14 3.3-10.13z" stroke="#e81313" stroke-width=".05" fill="#e81313"/><use xlink:href="#A" transform="matrix(1,0,0,1,1589.6728395061727,586.2118780200763) translate(0 12.444444444444446)"/><path d="M2120 484.67c22.1 0 40 17.9 40 40s-17.9 40-40 40h-80c-22.1 0-40-17.9-40-40s17.9-40 40-40z" stroke="#3a414a" fill="#fff"/><use xlink:href="#B" transform="matrix(1,0,0,1,2005,489.6666668128223) translate(31.82598765432099 26.52777777777778)"/><use xlink:href="#C" transform="matrix(1,0,0,1,2005,489.6666668128223) translate(93.49265432098765 26.52777777777778)"/><use xlink:href="#D" transform="matrix(1,0,0,1,2005,489.6666668128223) translate(10.251913580246915 53.19444444444445)"/><use xlink:href="#E" transform="matrix(1,0,0,1,2005,489.6666668128223) translate(65.74574074074074 53.19444444444445)"/><use xlink:href="#F" transform="matrix(1,0,0,1,2005,489.6666668128223) translate(100.2519135802469 53.19444444444445)"/><path d="M1940.86 525.64h-12.57v-1.95h12.56zm40.14 0h-9.52v-1.95h9.52z" stroke="#008a0e" stroke-width=".05" fill="#008a0e"/><path d="M1928.32 525.64h-1.14l.1-.97-.08-.88 1.12-.1z" fill="#008a0e"/><path stroke="#008a0e" stroke-width=".05" fill="#008a0e"/><path d="M1996.26 524.67L1982 529.3v-9.27z" fill="#008a0e"/><path d="M1999.42 524.67l-18.4 5.97V518.7zm-16.45 3.3l10.14-3.3-10.13-3.3z" stroke="#008a0e" stroke-width=".05" fill="#008a0e"/><use xlink:href="#s" transform="matrix(1,0,0,1,1940.8590752653242,514.0000001461557) translate(0 14.222222222222223)"/><path d="M1595.2 623.6a8 8 0 0 1 9.6 0l70.4 52.8a4.5 4.5 0 0 1 0 7.2l-70.4 52.8a8 8 0 0 1-9.6 0l-70.4-52.8a4.5 4.5 0 0 1 0-7.2z" stroke="#3a414a" fill="#fff"/><use xlink:href="#G" transform="matrix(1,0,0,1,1525,625) translate(52.06055555555557 41.604166666666664)"/><use xlink:href="#b" transform="matrix(1,0,0,1,1525,625) translate(79.43092592592592 41.604166666666664)"/><use xlink:href="#p" transform="matrix(1,0,0,1,1525,625) translate(15.301296296296323 57.604166666666664)"/><use xlink:href="#H" transform="matrix(1,0,0,1,1525,625) translate(90.30129629629629 57.604166666666664)"/><use xlink:href="#I" transform="matrix(1,0,0,1,1525,625) translate(48.375370370370376 73.60416666666666)"/><path d="M1720.97 813.96l.07.83.18.75.3.73.42.67.5.6.6.5.68.43.73.3.76.18.84.06H1744V821h-18.04l-1.05-.1-1.06-.24-1-.42-.94-.58-.83-.7-.7-.84-.6-.93-.4-1-.26-1.08-.07-1.06v-53.37h1.94zm-5.88-134.85l1.06.26 1 .42.94.58.83.7.7.84.6.93.4 1 .26 1.08.07 1.06v53.37h-1.94v-53.3l-.07-.82-.18-.75-.3-.73-.42-.67-.5-.6-.6-.5-.68-.43-.73-.3-.76-.18-.84-.06h-35.46V679h35.54z" stroke="#008a0e" stroke-width=".05" fill="#008a0e"/><path d="M1678.53 680.98h-1.13l.1-.98-.08-.92 1.1-.06z" fill="#008a0e"/><path stroke="#008a0e" stroke-width=".05" fill="#008a0e"/><path d="M1759.26 820l-14.26 4.63v-9.26z" fill="#008a0e"/><path d="M1762.42 820l-18.4 5.98v-11.96zm-16.45 3.3l10.14-3.3-10.13-3.3z" stroke="#008a0e" stroke-width=".05" fill="#008a0e"/><use xlink:href="#s" transform="matrix(1,0,0,1,1704.6913580246915,739.3333333333334) translate(0 14.222222222222223)"/><path d="M1835.2 763.6a8 8 0 0 1 9.6 0l70.4 52.8a4.5 4.5 0 0 1 0 7.2l-70.4 52.8a8 8 0 0 1-9.6 0l-70.4-52.8a4.5 4.5 0 0 1 0-7.2z" stroke="#3a414a" fill="#fff"/><use xlink:href="#J" transform="matrix(1,0,0,1,1765,765) translate(66.70253086419754 12.326388888888884)"/><use xlink:href="#K" transform="matrix(1,0,0,1,1765,765) translate(67.28895061728394 25.659722222222207)"/><use xlink:href="#L" transform="matrix(1,0,0,1,1765,765) translate(30.91549382716052 38.993055555555536)"/><use xlink:href="#M" transform="matrix(1,0,0,1,1765,765) translate(85.76117283950617 38.993055555555536)"/><use xlink:href="#N" transform="matrix(1,0,0,1,1765,765) translate(112.92166666666665 38.993055555555536)"/><use xlink:href="#O" transform="matrix(1,0,0,1,1765,765) translate(12.412407407407438 52.32638888888886)"/><use xlink:href="#P" transform="matrix(1,0,0,1,1765,765) translate(70.37537037037038 52.32638888888886)"/><use xlink:href="#Q" transform="matrix(1,0,0,1,1765,765) translate(128.3383333333333 52.32638888888886)"/><use xlink:href="#R" transform="matrix(1,0,0,1,1765,765) translate(26.91858024691361 65.65972222222219)"/><use xlink:href="#S" transform="matrix(1,0,0,1,1765,765) translate(46.60993827160495 65.65972222222219)"/><use xlink:href="#T" transform="matrix(1,0,0,1,1765,765) translate(55.869197530864206 65.65972222222219)"/><use xlink:href="#U" transform="matrix(1,0,0,1,1765,765) translate(101.51734567901232 65.65972222222219)"/><use xlink:href="#V" transform="matrix(1,0,0,1,1765,765) translate(47.28895061728396 78.99305555555551)"/><use xlink:href="#W" transform="matrix(1,0,0,1,1765,765) translate(81.17783950617283 78.99305555555551)"/><use xlink:href="#X" transform="matrix(1,0,0,1,1765,765) translate(53.4154938271605 92.32638888888884)"/><path d="M1932.7 820.98h-14.2V819h14.2zm48.3 0h-17.7V819h17.7z" stroke="#008a0e" stroke-width=".05" fill="#008a0e"/><path d="M1918.53 820.98h-1.13l.1-.98-.08-.92 1.1-.06z" fill="#008a0e"/><path stroke="#008a0e" stroke-width=".05" fill="#008a0e"/><path d="M1996.26 820l-14.26 4.63v-9.26z" fill="#008a0e"/><path d="M1999.42 820l-18.4 5.98v-11.96zm-16.45 3.3l10.14-3.3-10.13-3.3z" stroke="#008a0e" stroke-width=".05" fill="#008a0e"/><use xlink:href="#s" transform="matrix(1,0,0,1,1932.6913580246915,809.3333332897796) translate(0 14.222222222222223)"/><path d="M2120 780c22.1 0 40 17.9 40 40s-17.9 40-40 40h-80c-22.1 0-40-17.9-40-40s17.9-40 40-40z" stroke="#3a414a" fill="#fff"/><use xlink:href="#Y" transform="matrix(1,0,0,1,2005,784.9999999564462) translate(31.851851851851855 39.65277777777778)"/><use xlink:href="#Z" transform="matrix(1,0,0,1,2005,784.9999999564462) translate(66.35802469135803 39.65277777777778)"/><path d="M1600.97 861h-1.94v-41.33h1.94zm0-62.67h-1.94V739.5h1.94z" stroke="#e81313" stroke-width=".05" fill="#e81313"/><path d="M1600 738.5l.97-.06v1.1h-1.94v-1.1z" fill="#e81313"/><path stroke="#e81313" stroke-width=".05" fill="#e81313"/><path d="M1600 876.26l-4.63-14.26h9.27z" fill="#e81313"/><path d="M1600 879.42l-5.98-18.4h11.96zm-3.3-16.45l3.3 10.14 3.3-10.13z" stroke="#e81313" stroke-width=".05" fill="#e81313"/><use xlink:href="#aa" transform="matrix(1,0,0,1,1588.1975308641975,798.3338415626) translate(0 14.222222222222223)"/><path d="M1640 880c22.1 0 40 17.9 40 40s-17.9 40-40 40h-80c-22.1 0-40-17.9-40-40s17.9-40 40-40z" stroke="#3a414a" fill="#fff"/><use xlink:href="#B" transform="matrix(1,0,0,1,1525,885) translate(4.074074074074076 39.65277777777778)"/><use xlink:href="#ab" transform="matrix(1,0,0,1,1525,885) translate(65.74074074074073 39.65277777777778)"/><use xlink:href="#ac" transform="matrix(1,0,0,1,1525,885) translate(96.60493827160494 39.65277777777778)"/><path d="M1880 640c22.1 0 40 17.9 40 40s-17.9 40-40 40h-80c-22.1 0-40-17.9-40-40s17.9-40 40-40z" stroke="#3a414a" fill="#fff"/><use xlink:href="#Y" transform="matrix(1,0,0,1,1765,645) translate(31.851851851851855 39.65277777777778)"/><use xlink:href="#Z" transform="matrix(1,0,0,1,1765,645) translate(66.35802469135803 39.65277777777778)"/><path d="M1840.97 621h-1.94v-7.2h1.94zm0-28.53h-1.94v-8.12h1.94z" stroke="#e81313" stroke-width=".05" fill="#e81313"/><path d="M1840 583.35l.97-.06v1.08h-1.94v-1.1z" fill="#e81313"/><path stroke="#e81313" stroke-width=".05" fill="#e81313"/><path d="M1840 636.26l-4.63-14.26h9.27z" fill="#e81313"/><path d="M1840 639.42l-5.98-18.4h11.96zm-3.3-16.45l3.3 10.14 3.3-10.13z" stroke="#e81313" stroke-width=".05" fill="#e81313"/><g><use xlink:href="#aa" transform="matrix(1,0,0,1,1828.1975308641975,592.4738586655868) translate(0 14.222222222222223)"/></g><path d="M1840.97 914.04l-.08 1.05-.26 1.06-.42 1-.58.94-.7.83-.84.72-.93.57-1 .42-1.08.25-1.06.08H1699V919h134.96l.83-.06.75-.18.73-.3.67-.42.6-.5.5-.6.42-.68.3-.73.2-.76.06-.84v-9.9h1.94zm0-31.3h-1.94v-3.24h1.94z" stroke="#e81313" stroke-width=".05" fill="#e81313"/><path d="M1840 878.5l.97-.06v1.1h-1.94v-1.1z" fill="#e81313"/><path stroke="#e81313" stroke-width=".05" fill="#e81313"/><path d="M1698 924.63l-14.26-4.63 14.26-4.63z" fill="#e81313"/><path d="M1698.98 925.98l-18.4-5.98 18.4-5.98zm-12.1-5.98l10.15 3.3v-6.6z" stroke="#e81313" stroke-width=".05" fill="#e81313"/><g><use xlink:href="#aa" transform="matrix(1,0,0,1,1828.1975308641975,882.7286600357227) translate(0 14.222222222222223)"/></g><path d="M1355.32 103.75a7.5 7.5 0 0 1 9.37 0l90.62 72.5a4.8 4.8 0 0 1 0 7.5l-90.63 72.5a7.5 7.5 0 0 1-9.38 0l-90.63-72.5a4.8 4.8 0 0 1-.02-7.5z" stroke="#3a414a" fill="#fff"/><g><use xlink:href="#ad" transform="matrix(1,0,0,1,1265,105) translate(75.39388888888891 43.479166666666664)"/><use xlink:href="#ae" transform="matrix(1,0,0,1,1265,105) translate(96.09759259259259 43.479166666666664)"/><use xlink:href="#af" transform="matrix(1,0,0,1,1265,105) translate(54.70870370370372 59.47916666666666)"/><use xlink:href="#ag" transform="matrix(1,0,0,1,1265,105) translate(123.48648148148146 59.47916666666666)"/><use xlink:href="#ah" transform="matrix(1,0,0,1,1265,105) translate(16.597592592592626 75.47916666666664)"/><use xlink:href="#ai" transform="matrix(1,0,0,1,1265,105) translate(80.1901851851852 75.47916666666664)"/><use xlink:href="#aj" transform="matrix(1,0,0,1,1265,105) translate(122.30129629629629 75.47916666666664)"/><use xlink:href="#ae" transform="matrix(1,0,0,1,1265,105) translate(154.89388888888885 75.47916666666664)"/><use xlink:href="#ak" transform="matrix(1,0,0,1,1265,105) translate(26.57907407407411 91.47916666666663)"/><use xlink:href="#al" transform="matrix(1,0,0,1,1265,105) translate(73.20870370370372 91.47916666666663)"/><use xlink:href="#am" transform="matrix(1,0,0,1,1265,105) translate(92.43092592592593 91.47916666666663)"/><use xlink:href="#an" transform="matrix(1,0,0,1,1265,105) translate(114.65314814814815 91.47916666666663)"/><use xlink:href="#ao" transform="matrix(1,0,0,1,1265,105) translate(43.57907407407411 107.47916666666663)"/><use xlink:href="#am" transform="matrix(1,0,0,1,1265,105) translate(58.39388888888892 107.47916666666663)"/><use xlink:href="#ap" transform="matrix(1,0,0,1,1265,105) translate(80.61611111111112 107.47916666666663)"/></g><path d="M1639 139c22.64 0 41 18.36 41 41s-18.36 41-41 41h-78c-22.64 0-41-18.36-41-41s18.36-41 41-41z" stroke="#3a414a" fill="#fff"/><g><use xlink:href="#aq" transform="matrix(1,0,0,1,1525,144) translate(29.560555555555567 18.249999999999993)"/><use xlink:href="#ar" transform="matrix(1,0,0,1,1525,144) translate(92.67166666666665 18.249999999999993)"/><use xlink:href="#as" transform="matrix(1,0,0,1,1525,144) translate(14.555555555555571 42.249999999999986)"/><use xlink:href="#at" transform="matrix(1,0,0,1,1525,144) translate(117.72222222222221 42.249999999999986)"/><use xlink:href="#au" transform="matrix(1,0,0,1,1525,144) translate(30.088333333333342 66.24999999999999)"/></g><path d="M1461.7 180.97h-3.08v-1.94h3.07zm39.3 0h-8.7v-1.94h8.7z" stroke="#008a0e" stroke-width=".05" fill="#008a0e"/><path d="M1458.64 180.97h-1.12l.1-.97-.1-.94 1.12-.03z" fill="#008a0e"/><path stroke="#008a0e" stroke-width=".05" fill="#008a0e"/><path d="M1516.26 180l-14.26 4.63v-9.26z" fill="#008a0e"/><path d="M1519.42 180l-18.4 5.98v-11.96zm-16.45 3.3l10.14-3.3-10.13-3.3z" stroke="#008a0e" stroke-width=".05" fill="#008a0e"/><g><use xlink:href="#av" transform="matrix(1,0,0,1,1461.6913580246915,169.33333333333334) translate(0 14.222222222222221)"/></g><path d="M1355.2 305.93a8 8 0 0 1 9.6 0l70.4 52.8a4.5 4.5 0 0 1 0 7.2l-70.4 52.8a8 8 0 0 1-9.6 0l-70.4-52.8a4.5 4.5 0 0 1 0-7.2z" stroke="#3a414a" fill="#fff"/><g><use xlink:href="#aw" transform="matrix(1,0,0,1,1285,307.3333333333333) translate(48.35685185185187 41.604166666666664)"/><use xlink:href="#b" transform="matrix(1,0,0,1,1285,307.3333333333333) translate(83.13462962962963 41.604166666666664)"/><use xlink:href="#ax" transform="matrix(1,0,0,1,1285,307.3333333333333) translate(19.505000000000024 57.604166666666664)"/><use xlink:href="#ay" transform="matrix(1,0,0,1,1285,307.3333333333333) translate(69.06055555555557 57.604166666666664)"/><use xlink:href="#az" transform="matrix(1,0,0,1,1285,307.3333333333333) translate(90.505 57.604166666666664)"/><use xlink:href="#w" transform="matrix(1,0,0,1,1285,307.3333333333333) translate(123.09759259259258 57.604166666666664)"/><use xlink:href="#aA" transform="matrix(1,0,0,1,1285,307.3333333333333) translate(27.356851851851875 73.60416666666666)"/><use xlink:href="#i" transform="matrix(1,0,0,1,1285,307.3333333333333) translate(69.39388888888888 73.60416666666666)"/></g><path d="M1637.67 320c23.38 0 42.33 18.95 42.33 42.33s-18.95 42.34-42.33 42.34h-75.34c-23.38 0-42.33-18.96-42.33-42.34 0-23.38 18.95-42.33 42.33-42.33z" stroke="#3a414a" fill="#fff"/><g><use xlink:href="#aB" transform="matrix(1,0,0,1,1525,325) translate(39.65932098765433 14.78819444444444)"/><use xlink:href="#aC" transform="matrix(1,0,0,1,1525,325) translate(88.74574074074073 14.78819444444444)"/><use xlink:href="#aD" transform="matrix(1,0,0,1,1525,325) translate(40.45370370370372 33.4548611111111)"/><use xlink:href="#aE" transform="matrix(1,0,0,1,1525,325) translate(14.575987654321006 52.12152777777776)"/><use xlink:href="#aF" transform="matrix(1,0,0,1,1525,325) translate(97.45253086419751 52.12152777777776)"/><use xlink:href="#aC" transform="matrix(1,0,0,1,1525,325) translate(113.82907407407406 52.12152777777776)"/><use xlink:href="#aG" transform="matrix(1,0,0,1,1525,325) translate(35.748827160493846 70.78819444444441)"/><use xlink:href="#aH" transform="matrix(1,0,0,1,1525,325) translate(93.56364197530864 70.78819444444441)"/></g><path d="M1454.03 363.3h-15.53v-1.94h15.53zm46.97 0h-16.36v-1.94H1501z" stroke="#008a0e" stroke-width=".05" fill="#008a0e"/><path d="M1438.53 363.3h-1.13l.1-.97-.08-.92 1.1-.04z" fill="#008a0e"/><path stroke="#008a0e" stroke-width=".05" fill="#008a0e"/><path d="M1516.26 362.33l-14.26 4.64v-9.27z" fill="#008a0e"/><path d="M1519.42 362.33l-18.4 5.98v-11.94zm-16.45 3.3l10.14-3.3-10.13-3.3z" stroke="#008a0e" stroke-width=".05" fill="#008a0e"/><g><use xlink:href="#s" transform="matrix(1,0,0,1,1454.0247821799783,351.66666666666663) translate(0 14.222222222222223)"/></g><path d="M1360.97 285.33h-1.94V281h1.94zm0-23h-1.94v-2.93h1.94z" stroke="#e81313" stroke-width=".05" fill="#e81313"/><path d="M1360 258.4l.97-.07v1.1h-1.94v-1.1z" fill="#e81313"/><path stroke="#e81313" stroke-width=".05" fill="#e81313"/><path d="M1360 300.6l-4.63-14.27h9.27z" fill="#e81313"/><path d="M1360 303.75l-5.98-18.4h11.96zm-3.3-16.44l3.3 10.14 3.3-10.13z" stroke="#e81313" stroke-width=".05" fill="#e81313"/><g><use xlink:href="#A" transform="matrix(1,0,0,1,1349.6728395061727,262.3372296220293) translate(0 12.444444444444446)"/></g><path d="M1360.97 442.87h-1.94v-2.43h1.94z" stroke="#e81313" stroke-width=".05" fill="#e81313"/><path d="M1360 420.83l.97-.06v1h-1.94v-1z" fill="#e81313"/><path stroke="#e81313" stroke-width=".05" fill="#e81313"/><path d="M1360 458.14l-4.63-14.27h9.27z" fill="#e81313"/><path d="M1360 461.3l-5.98-18.4h11.96zm-3.3-16.45l3.3 10.13 3.3-10.13z" stroke="#e81313" stroke-width=".05" fill="#e81313"/><g><use xlink:href="#A" transform="matrix(1,0,0,1,1349.6728395061727,421.77667476632416) translate(0 12.444444444444446)"/></g><path d="M1504 523.7v1.94h-11.1v-1.95zm-55.64-.4v-1.94h13.92v1.95z" stroke="#008a0e" stroke-width=".05" fill="#008a0e"/><path d="M1448.38 523.3h-1.13l.1-.97-.08-.9 1.12-.07z" fill="#008a0e"/><path stroke="#008a0e" stroke-width=".05" fill="#008a0e"/><path d="M1519.26 524.67L1505 529.3v-9.27z" fill="#008a0e"/><path d="M1522.42 524.67l-18.4 5.97V518.7zm-16.45 3.3l10.14-3.3-10.13-3.3z" stroke="#008a0e" stroke-width=".05" fill="#008a0e"/><g><use xlink:href="#s" transform="matrix(1,0,0,1,1462.279479883184,511.6666666666666) translate(0 14.222222222222223)"/></g><path d="M1360.97 621h-1.94v-9.54h1.94zm0-28.2h-1.94v-8.5h1.94z" stroke="#e81313" stroke-width=".05" fill="#e81313"/><path d="M1360 583.3l.97-.07v1.1h-1.94v-1.1z" fill="#e81313"/><path stroke="#e81313" stroke-width=".05" fill="#e81313"/><path d="M1360 636.26l-4.63-14.26h9.27z" fill="#e81313"/><path d="M1360 639.42l-5.98-18.4h11.96zm-3.3-16.45l3.3 10.14 3.3-10.13z" stroke="#e81313" stroke-width=".05" fill="#e81313"/><g><use xlink:href="#A" transform="matrix(1,0,0,1,1349.6728395061727,592.7955209546179) translate(0 12.444444444444446)"/></g><defs><path fill="#3a414a" d="M266 0h-40l-56-210L115 0H75L2-248h35L96-30l15-64 43-154h32l59 218 59-218h35" id="aI"/><path fill="#3a414a" d="M141-36C126-15 110 5 73 4 37 3 15-17 15-53c-1-64 63-63 125-63 3-35-9-54-41-54-24 1-41 7-42 31l-33-3c5-37 33-52 76-52 45 0 72 20 72 64v82c-1 20 7 32 28 27v20c-31 9-61-2-59-35zM48-53c0 20 12 33 32 33 41-3 63-29 60-74-43 2-92-5-92 41" id="aJ"/><path fill="#3a414a" d="M135-143c-3-34-86-38-87 0 15 53 115 12 119 90S17 21 10-45l28-5c4 36 97 45 98 0-10-56-113-15-118-90-4-57 82-63 122-42 12 7 21 19 24 35" id="aK"/><g id="a"><use transform="matrix(0.03703703703703702,0,0,0.03703703703703702,0,0)" xlink:href="#aI"/><use transform="matrix(0.03703703703703702,0,0,0.03703703703703702,12.074074074074069,0)" xlink:href="#aJ"/><use transform="matrix(0.03703703703703702,0,0,0.03703703703703702,19.481481481481474,0)" xlink:href="#aK"/></g><path fill="#3a414a" d="M59-47c-2 24 18 29 38 22v24C64 9 27 4 27-40v-127H5v-23h24l9-43h21v43h35v23H59v120" id="aL"/><path fill="#3a414a" d="M106-169C34-169 62-67 57 0H25v-261h32l-1 103c12-21 28-36 61-36 89 0 53 116 60 194h-32v-121c2-32-8-49-39-48" id="aM"/><path fill="#3a414a" d="M100-194c63 0 86 42 84 106H49c0 40 14 67 53 68 26 1 43-12 49-29l28 8c-11 28-37 45-77 45C44 4 14-33 15-96c1-61 26-98 85-98zm52 81c6-60-76-77-97-28-3 7-6 17-6 28h103" id="aN"/><g id="b"><use transform="matrix(0.03703703703703702,0,0,0.03703703703703702,0,0)" xlink:href="#aL"/><use transform="matrix(0.03703703703703702,0,0,0.03703703703703702,3.703703703703702,0)" xlink:href="#aM"/><use transform="matrix(0.03703703703703702,0,0,0.03703703703703702,11.111111111111107,0)" xlink:href="#aN"/></g><path fill="#3a414a" d="M96-169c-40 0-48 33-48 73s9 75 48 75c24 0 41-14 43-38l32 2c-6 37-31 61-74 61-59 0-76-41-82-99-10-93 101-131 147-64 4 7 5 14 7 22l-32 3c-4-21-16-35-41-35" id="aO"/><path fill="#3a414a" d="M100-194c62-1 85 37 85 99 1 63-27 99-86 99S16-35 15-95c0-66 28-99 85-99zM99-20c44 1 53-31 53-75 0-43-8-75-51-75s-53 32-53 75 10 74 51 75" id="aP"/><path fill="#3a414a" d="M210-169c-67 3-38 105-44 169h-31v-121c0-29-5-50-35-48C34-165 62-65 56 0H25l-1-190h30c1 10-1 24 2 32 10-44 99-50 107 0 11-21 27-35 58-36 85-2 47 119 55 194h-31v-121c0-29-5-49-35-48" id="aQ"/><path fill="#3a414a" d="M115-194c55 1 70 41 70 98S169 2 115 4C84 4 66-9 55-30l1 105H24l-1-265h31l2 30c10-21 28-34 59-34zm-8 174c40 0 45-34 45-75s-6-73-45-74c-42 0-51 32-51 76 0 43 10 73 51 73" id="aR"/><path fill="#3a414a" d="M24-231v-30h32v30H24zM24 0v-190h32V0H24" id="aS"/><path fill="#3a414a" d="M114-163C36-179 61-72 57 0H25l-1-190h30c1 12-1 29 2 39 6-27 23-49 58-41v29" id="aT"/><g id="c"><use transform="matrix(0.03703703703703702,0,0,0.03703703703703702,0,0)" xlink:href="#aO"/><use transform="matrix(0.03703703703703702,0,0,0.03703703703703702,6.666666666666663,0)" xlink:href="#aP"/><use transform="matrix(0.03703703703703702,0,0,0.03703703703703702,14.074074074074067,0)" xlink:href="#aQ"/><use transform="matrix(0.03703703703703702,0,0,0.03703703703703702,25.148148148148138,0)" xlink:href="#aR"/><use transform="matrix(0.03703703703703702,0,0,0.03703703703703702,32.55555555555554,0)" xlink:href="#aN"/><use transform="matrix(0.03703703703703702,0,0,0.03703703703703702,39.96296296296295,0)" xlink:href="#aL"/><use transform="matrix(0.03703703703703702,0,0,0.03703703703703702,43.66666666666665,0)" xlink:href="#aS"/><use transform="matrix(0.03703703703703702,0,0,0.03703703703703702,46.592592592592574,0)" xlink:href="#aL"/><use transform="matrix(0.03703703703703702,0,0,0.03703703703703702,50.296296296296276,0)" xlink:href="#aP"/><use transform="matrix(0.03703703703703702,0,0,0.03703703703703702,57.70370370370368,0)" xlink:href="#aT"/></g><path fill="#3a414a" d="M85-194c31 0 48 13 60 33l-1-100h32l1 261h-30c-2-10 0-23-3-31C134-8 116 4 85 4 32 4 16-35 15-94c0-66 23-100 70-100zm9 24c-40 0-46 34-46 75 0 40 6 74 45 74 42 0 51-32 51-76 0-42-9-74-50-73" id="aU"/><path fill="#3a414a" d="M108 0H70L1-190h34L89-25l56-165h34" id="aV"/><path fill="#3a414a" d="M117-194c89-4 53 116 60 194h-32v-121c0-31-8-49-39-48C34-167 62-67 57 0H25l-1-190h30c1 10-1 24 2 32 11-22 29-35 61-36" id="aW"/><path fill="#3a414a" d="M177-190C167-65 218 103 67 71c-23-6-38-20-44-43l32-5c15 47 100 32 89-28v-30C133-14 115 1 83 1 29 1 15-40 15-95c0-56 16-97 71-98 29-1 48 16 59 35 1-10 0-23 2-32h30zM94-22c36 0 50-32 50-73 0-42-14-75-50-75-39 0-46 34-46 75s6 73 46 73" id="aX"/><g id="d"><use transform="matrix(0.03703703703703702,0,0,0.03703703703703702,0,0)" xlink:href="#aJ"/><use transform="matrix(0.03703703703703702,0,0,0.03703703703703702,7.407407407407404,0)" xlink:href="#aU"/><use transform="matrix(0.03703703703703702,0,0,0.03703703703703702,14.814814814814808,0)" xlink:href="#aV"/><use transform="matrix(0.03703703703703702,0,0,0.03703703703703702,21.481481481481474,0)" xlink:href="#aJ"/><use transform="matrix(0.03703703703703702,0,0,0.03703703703703702,28.888888888888875,0)" xlink:href="#aW"/><use transform="matrix(0.03703703703703702,0,0,0.03703703703703702,36.296296296296276,0)" xlink:href="#aL"/><use transform="matrix(0.03703703703703702,0,0,0.03703703703703702,39.999999999999986,0)" xlink:href="#aJ"/><use transform="matrix(0.03703703703703702,0,0,0.03703703703703702,47.40740740740739,0)" xlink:href="#aX"/><use transform="matrix(0.03703703703703702,0,0,0.03703703703703702,54.81481481481479,0)" xlink:href="#aN"/><use transform="matrix(0.03703703703703702,0,0,0.03703703703703702,62.22222222222219,0)" xlink:href="#aU"/></g><g id="e"><use transform="matrix(0.03703703703703702,0,0,0.03703703703703702,0,0)" xlink:href="#aP"/><use transform="matrix(0.03703703703703702,0,0,0.03703703703703702,7.407407407407404,0)" xlink:href="#aT"/></g><g id="f"><use transform="matrix(0.03703703703703702,0,0,0.03703703703703702,0,0)" xlink:href="#aU"/><use transform="matrix(0.03703703703703702,0,0,0.03703703703703702,7.407407407407404,0)" xlink:href="#aS"/><use transform="matrix(0.03703703703703702,0,0,0.03703703703703702,10.333333333333329,0)" xlink:href="#aK"/><use transform="matrix(0.03703703703703702,0,0,0.03703703703703702,16.999999999999993,0)" xlink:href="#aJ"/><use transform="matrix(0.03703703703703702,0,0,0.03703703703703702,24.407407407407398,0)" xlink:href="#aU"/><use transform="matrix(0.03703703703703702,0,0,0.03703703703703702,31.814814814814802,0)" xlink:href="#aV"/><use transform="matrix(0.03703703703703702,0,0,0.03703703703703702,38.48148148148147,0)" xlink:href="#aJ"/><use transform="matrix(0.03703703703703702,0,0,0.03703703703703702,45.88888888888887,0)" xlink:href="#aW"/><use transform="matrix(0.03703703703703702,0,0,0.03703703703703702,53.296296296296276,0)" xlink:href="#aL"/><use transform="matrix(0.03703703703703702,0,0,0.03703703703703702,56.99999999999998,0)" xlink:href="#aJ"/><use transform="matrix(0.03703703703703702,0,0,0.03703703703703702,64.40740740740738,0)" xlink:href="#aX"/><use transform="matrix(0.03703703703703702,0,0,0.03703703703703702,71.81481481481478,0)" xlink:href="#aN"/><use transform="matrix(0.03703703703703702,0,0,0.03703703703703702,79.22222222222219,0)" xlink:href="#aU"/></g><path fill="#3a414a" d="M115-194c53 0 69 39 70 98 0 66-23 100-70 100C84 3 66-7 56-30L54 0H23l1-261h32v101c10-23 28-34 59-34zm-8 174c40 0 45-34 45-75 0-40-5-75-45-74-42 0-51 32-51 76 0 43 10 73 51 73" id="aY"/><path fill="#3a414a" d="M179-190L93 31C79 59 56 82 12 73V49c39 6 53-20 64-50L1-190h34L92-34l54-156h33" id="aZ"/><g id="g"><use transform="matrix(0.03703703703703702,0,0,0.03703703703703702,0,0)" xlink:href="#aY"/><use transform="matrix(0.03703703703703702,0,0,0.03703703703703702,7.407407407407404,0)" xlink:href="#aZ"/></g><g id="h"><use transform="matrix(0.03703703703703702,0,0,0.03703703703703702,0,0)" xlink:href="#aL"/><use transform="matrix(0.03703703703703702,0,0,0.03703703703703702,3.703703703703702,0)" xlink:href="#aM"/><use transform="matrix(0.03703703703703702,0,0,0.03703703703703702,11.111111111111107,0)" xlink:href="#aN"/></g><path fill="#3a414a" d="M103-251c84 0 111 97 45 133-19 10-37 24-39 52H78c0-63 77-55 77-114 0-30-21-42-52-43-32 0-53 17-56 46l-32-2c7-45 34-72 88-72zM77 0v-35h34V0H77" id="ba"/><g id="i"><use transform="matrix(0.03703703703703702,0,0,0.03703703703703702,0,0)" xlink:href="#aS"/><use transform="matrix(0.03703703703703702,0,0,0.03703703703703702,2.9259259259259247,0)" xlink:href="#aW"/><use transform="matrix(0.03703703703703702,0,0,0.03703703703703702,10.333333333333329,0)" xlink:href="#aO"/><use transform="matrix(0.03703703703703702,0,0,0.03703703703703702,16.999999999999993,0)" xlink:href="#aS"/><use transform="matrix(0.03703703703703702,0,0,0.03703703703703702,19.925925925925917,0)" xlink:href="#aU"/><use transform="matrix(0.03703703703703702,0,0,0.03703703703703702,27.33333333333332,0)" xlink:href="#aN"/><use transform="matrix(0.03703703703703702,0,0,0.03703703703703702,34.740740740740726,0)" xlink:href="#aW"/><use transform="matrix(0.03703703703703702,0,0,0.03703703703703702,42.14814814814813,0)" xlink:href="#aL"/><use transform="matrix(0.03703703703703702,0,0,0.03703703703703702,45.85185185185183,0)" xlink:href="#ba"/></g><path fill="#3a414a" d="M190 0L58-211 59 0H30v-248h39L202-35l-2-213h31V0h-41" id="bb"/><g id="j"><use transform="matrix(0.05555555555555554,0,0,0.05555555555555554,0,0)" xlink:href="#bb"/><use transform="matrix(0.05555555555555554,0,0,0.05555555555555554,14.388888888888884,0)" xlink:href="#aP"/></g><path fill="#3a414a" d="M30 0v-248h187v28H63v79h144v27H63v87h162V0H30" id="bc"/><path fill="#3a414a" d="M141 0L90-78 38 0H4l68-98-65-92h35l48 74 47-74h35l-64 92 68 98h-35" id="bd"/><g id="k"><use transform="matrix(0.05555555555555554,0,0,0.05555555555555554,0,0)" xlink:href="#bc"/><use transform="matrix(0.05555555555555554,0,0,0.05555555555555554,13.333333333333329,0)" xlink:href="#bd"/><use transform="matrix(0.05555555555555554,0,0,0.05555555555555554,23.333333333333325,0)" xlink:href="#aL"/><use transform="matrix(0.05555555555555554,0,0,0.05555555555555554,28.88888888888888,0)" xlink:href="#aT"/><use transform="matrix(0.05555555555555554,0,0,0.05555555555555554,35.499999999999986,0)" xlink:href="#aJ"/></g><g id="l"><use transform="matrix(0.03703703703703702,0,0,0.03703703703703702,0,0)" xlink:href="#aI"/><use transform="matrix(0.03703703703703702,0,0,0.03703703703703702,12.074074074074069,0)" xlink:href="#aJ"/><use transform="matrix(0.03703703703703702,0,0,0.03703703703703702,19.481481481481474,0)" xlink:href="#aK"/></g><g id="m"><use transform="matrix(0.03703703703703702,0,0,0.03703703703703702,0,0)" xlink:href="#aS"/><use transform="matrix(0.03703703703703702,0,0,0.03703703703703702,2.9259259259259247,0)" xlink:href="#aW"/><use transform="matrix(0.03703703703703702,0,0,0.03703703703703702,10.333333333333329,0)" xlink:href="#aO"/><use transform="matrix(0.03703703703703702,0,0,0.03703703703703702,16.999999999999993,0)" xlink:href="#aS"/><use transform="matrix(0.03703703703703702,0,0,0.03703703703703702,19.925925925925917,0)" xlink:href="#aU"/><use transform="matrix(0.03703703703703702,0,0,0.03703703703703702,27.33333333333332,0)" xlink:href="#aN"/><use transform="matrix(0.03703703703703702,0,0,0.03703703703703702,34.740740740740726,0)" xlink:href="#aW"/><use transform="matrix(0.03703703703703702,0,0,0.03703703703703702,42.14814814814813,0)" xlink:href="#aL"/></g><path fill="#3a414a" d="M84 4C-5 8 30-112 23-190h32v120c0 31 7 50 39 49 72-2 45-101 50-169h31l1 190h-30c-1-10 1-25-2-33-11 22-28 36-60 37" id="be"/><path fill="#3a414a" d="M24 0v-261h32V0H24" id="bf"/><g id="n"><use transform="matrix(0.03703703703703702,0,0,0.03703703703703702,0,0)" xlink:href="#aT"/><use transform="matrix(0.03703703703703702,0,0,0.03703703703703702,4.407407407407406,0)" xlink:href="#aN"/><use transform="matrix(0.03703703703703702,0,0,0.03703703703703702,11.81481481481481,0)" xlink:href="#aK"/><use transform="matrix(0.03703703703703702,0,0,0.03703703703703702,18.481481481481474,0)" xlink:href="#be"/><use transform="matrix(0.03703703703703702,0,0,0.03703703703703702,25.88888888888888,0)" xlink:href="#bf"/><use transform="matrix(0.03703703703703702,0,0,0.03703703703703702,28.814814814814802,0)" xlink:href="#aL"/></g><path fill="#3a414a" d="M101-234c-31-9-42 10-38 44h38v23H63V0H32v-167H5v-23h27c-7-52 17-82 69-68v24" id="bg"/><g id="o"><use transform="matrix(0.03703703703703702,0,0,0.03703703703703702,0,0)" xlink:href="#aP"/><use transform="matrix(0.03703703703703702,0,0,0.03703703703703702,7.407407407407404,0)" xlink:href="#bg"/></g><path fill="#3a414a" d="M47-170H22l-4-78h33" id="bh"/><g id="p"><use transform="matrix(0.03703703703703702,0,0,0.03703703703703702,0,0)" xlink:href="#aO"/><use transform="matrix(0.03703703703703702,0,0,0.03703703703703702,6.666666666666663,0)" xlink:href="#aP"/><use transform="matrix(0.03703703703703702,0,0,0.03703703703703702,14.074074074074067,0)" xlink:href="#aQ"/><use transform="matrix(0.03703703703703702,0,0,0.03703703703703702,25.148148148148138,0)" xlink:href="#aR"/><use transform="matrix(0.03703703703703702,0,0,0.03703703703703702,32.55555555555554,0)" xlink:href="#aN"/><use transform="matrix(0.03703703703703702,0,0,0.03703703703703702,39.96296296296295,0)" xlink:href="#aL"/><use transform="matrix(0.03703703703703702,0,0,0.03703703703703702,43.66666666666665,0)" xlink:href="#aS"/><use transform="matrix(0.03703703703703702,0,0,0.03703703703703702,46.592592592592574,0)" xlink:href="#aL"/><use transform="matrix(0.03703703703703702,0,0,0.03703703703703702,50.296296296296276,0)" xlink:href="#aP"/><use transform="matrix(0.03703703703703702,0,0,0.03703703703703702,57.70370370370368,0)" xlink:href="#aT"/><use transform="matrix(0.03703703703703702,0,0,0.03703703703703702,62.111111111111086,0)" xlink:href="#bh"/><use transform="matrix(0.03703703703703702,0,0,0.03703703703703702,64.6296296296296,0)" xlink:href="#aK"/></g><path fill="#3a414a" d="M206 0h-36l-40-164L89 0H53L-1-190h32L70-26l43-164h34l41 164 42-164h31" id="bi"/><g id="q"><use transform="matrix(0.03703703703703702,0,0,0.03703703703703702,0,0)" xlink:href="#aP"/><use transform="matrix(0.03703703703703702,0,0,0.03703703703703702,7.407407407407404,0)" xlink:href="#bi"/><use transform="matrix(0.03703703703703702,0,0,0.03703703703703702,16.999999999999993,0)" xlink:href="#aW"/></g><g id="r"><use transform="matrix(0.03703703703703702,0,0,0.03703703703703702,0,0)" xlink:href="#aJ"/><use transform="matrix(0.03703703703703702,0,0,0.03703703703703702,7.407407407407404,0)" xlink:href="#aO"/><use transform="matrix(0.03703703703703702,0,0,0.03703703703703702,14.074074074074067,0)" xlink:href="#aL"/><use transform="matrix(0.03703703703703702,0,0,0.03703703703703702,17.777777777777768,0)" xlink:href="#aS"/><use transform="matrix(0.03703703703703702,0,0,0.03703703703703702,20.70370370370369,0)" xlink:href="#aP"/><use transform="matrix(0.03703703703703702,0,0,0.03703703703703702,28.111111111111097,0)" xlink:href="#aW"/><use transform="matrix(0.03703703703703702,0,0,0.03703703703703702,35.5185185185185,0)" xlink:href="#aK"/><use transform="matrix(0.03703703703703702,0,0,0.03703703703703702,42.18518518518516,0)" xlink:href="#ba"/></g><path fill="#333" d="M146-102V0H94v-102L6-248h54l60 105 60-105h54" id="bj"/><path fill="#333" d="M185-48c-13 30-37 53-82 52C43 2 14-33 14-96s30-98 90-98c62 0 83 45 84 108H66c0 31 8 55 39 56 18 0 30-7 34-22zm-45-69c5-46-57-63-70-21-2 6-4 13-4 21h74" id="bk"/><path fill="#333" d="M137-138c1-29-70-34-71-4 15 46 118 7 119 86 1 83-164 76-172 9l43-7c4 19 20 25 44 25 33 8 57-30 24-41C81-84 22-81 20-136c-2-80 154-74 161-7" id="bl"/><g id="s"><use transform="matrix(0.04938271604938272,0,0,0.04938271604938272,0,0)" xlink:href="#bj"/><use transform="matrix(0.04938271604938272,0,0,0.04938271604938272,10.864197530864198,0)" xlink:href="#bk"/><use transform="matrix(0.04938271604938272,0,0,0.04938271604938272,20.74074074074074,0)" xlink:href="#bl"/></g><path fill="#3a414a" d="M33 0v-248h34V0H33" id="bm"/><g id="t"><use transform="matrix(0.03703703703703702,0,0,0.03703703703703702,0,0)" xlink:href="#bm"/><use transform="matrix(0.03703703703703702,0,0,0.03703703703703702,3.703703703703702,0)" xlink:href="#aK"/></g><g id="u"><use transform="matrix(0.03703703703703702,0,0,0.03703703703703702,0,0)" xlink:href="#aO"/><use transform="matrix(0.03703703703703702,0,0,0.03703703703703702,6.666666666666663,0)" xlink:href="#aP"/><use transform="matrix(0.03703703703703702,0,0,0.03703703703703702,14.074074074074067,0)" xlink:href="#aQ"/><use transform="matrix(0.03703703703703702,0,0,0.03703703703703702,25.148148148148138,0)" xlink:href="#aR"/><use transform="matrix(0.03703703703703702,0,0,0.03703703703703702,32.55555555555554,0)" xlink:href="#aN"/><use transform="matrix(0.03703703703703702,0,0,0.03703703703703702,39.96296296296295,0)" xlink:href="#aL"/><use transform="matrix(0.03703703703703702,0,0,0.03703703703703702,43.66666666666665,0)" xlink:href="#aS"/><use transform="matrix(0.03703703703703702,0,0,0.03703703703703702,46.592592592592574,0)" xlink:href="#aL"/><use transform="matrix(0.03703703703703702,0,0,0.03703703703703702,50.296296296296276,0)" xlink:href="#aP"/><use transform="matrix(0.03703703703703702,0,0,0.03703703703703702,57.70370370370368,0)" xlink:href="#aT"/><use transform="matrix(0.03703703703703702,0,0,0.03703703703703702,62.111111111111086,0)" xlink:href="#bh"/><use transform="matrix(0.03703703703703702,0,0,0.03703703703703702,64.6296296296296,0)" xlink:href="#aK"/></g><g id="v"><use transform="matrix(0.03703703703703702,0,0,0.03703703703703702,0,0)" xlink:href="#aS"/><use transform="matrix(0.03703703703703702,0,0,0.03703703703703702,2.9259259259259247,0)" xlink:href="#aW"/><use transform="matrix(0.03703703703703702,0,0,0.03703703703703702,10.333333333333329,0)" xlink:href="#aN"/><use transform="matrix(0.03703703703703702,0,0,0.03703703703703702,17.740740740740733,0)" xlink:href="#bd"/><use transform="matrix(0.03703703703703702,0,0,0.03703703703703702,24.407407407407398,0)" xlink:href="#aR"/><use transform="matrix(0.03703703703703702,0,0,0.03703703703703702,31.814814814814802,0)" xlink:href="#aN"/><use transform="matrix(0.03703703703703702,0,0,0.03703703703703702,39.22222222222221,0)" xlink:href="#aT"/><use transform="matrix(0.03703703703703702,0,0,0.03703703703703702,43.62962962962961,0)" xlink:href="#aS"/><use transform="matrix(0.03703703703703702,0,0,0.03703703703703702,46.555555555555536,0)" xlink:href="#aN"/><use transform="matrix(0.03703703703703702,0,0,0.03703703703703702,53.96296296296294,0)" xlink:href="#aW"/><use transform="matrix(0.03703703703703702,0,0,0.03703703703703702,61.370370370370345,0)" xlink:href="#aO"/><use transform="matrix(0.03703703703703702,0,0,0.03703703703703702,68.03703703703701,0)" xlink:href="#aN"/></g><use transform="matrix(0.03703703703703702,0,0,0.03703703703703702,0,0)" xlink:href="#aJ" id="w"/><g id="x"><use transform="matrix(0.03703703703703702,0,0,0.03703703703703702,0,0)" xlink:href="#aO"/><use transform="matrix(0.03703703703703702,0,0,0.03703703703703702,6.666666666666663,0)" xlink:href="#aP"/><use transform="matrix(0.03703703703703702,0,0,0.03703703703703702,14.074074074074067,0)" xlink:href="#aW"/><use transform="matrix(0.03703703703703702,0,0,0.03703703703703702,21.481481481481474,0)" xlink:href="#aL"/><use transform="matrix(0.03703703703703702,0,0,0.03703703703703702,25.185185185185173,0)" xlink:href="#aT"/><use transform="matrix(0.03703703703703702,0,0,0.03703703703703702,29.592592592592574,0)" xlink:href="#aS"/><use transform="matrix(0.03703703703703702,0,0,0.03703703703703702,32.518518518518505,0)" xlink:href="#aY"/><use transform="matrix(0.03703703703703702,0,0,0.03703703703703702,39.92592592592591,0)" xlink:href="#be"/><use transform="matrix(0.03703703703703702,0,0,0.03703703703703702,47.333333333333314,0)" xlink:href="#aL"/><use transform="matrix(0.03703703703703702,0,0,0.03703703703703702,51.03703703703702,0)" xlink:href="#aS"/><use transform="matrix(0.03703703703703702,0,0,0.03703703703703702,53.96296296296294,0)" xlink:href="#aW"/><use transform="matrix(0.03703703703703702,0,0,0.03703703703703702,61.370370370370345,0)" xlink:href="#aX"/></g><g id="y"><use transform="matrix(0.03703703703703702,0,0,0.03703703703703702,0,0)" xlink:href="#bg"/><use transform="matrix(0.03703703703703702,0,0,0.03703703703703702,3.703703703703702,0)" xlink:href="#aJ"/><use transform="matrix(0.03703703703703702,0,0,0.03703703703703702,11.111111111111107,0)" xlink:href="#aO"/><use transform="matrix(0.03703703703703702,0,0,0.03703703703703702,17.777777777777768,0)" xlink:href="#aL"/><use transform="matrix(0.03703703703703702,0,0,0.03703703703703702,21.481481481481474,0)" xlink:href="#aP"/><use transform="matrix(0.03703703703703702,0,0,0.03703703703703702,28.888888888888875,0)" xlink:href="#aT"/></g><g id="z"><use transform="matrix(0.03703703703703702,0,0,0.03703703703703702,0,0)" xlink:href="#aL"/><use transform="matrix(0.03703703703703702,0,0,0.03703703703703702,3.703703703703702,0)" xlink:href="#aP"/></g><path fill="#333" d="M175 0L67-191c6 58 2 128 3 191H24v-248h59L193-55c-6-58-2-129-3-193h46V0h-61" id="bn"/><path fill="#333" d="M110-194c64 0 96 36 96 99 0 64-35 99-97 99-61 0-95-36-95-99 0-62 34-99 96-99zm-1 164c35 0 45-28 45-65 0-40-10-65-43-65-34 0-45 26-45 65 0 36 10 65 43 65" id="bo"/><g id="A"><use transform="matrix(0.04320987654320988,0,0,0.04320987654320988,0,0)" xlink:href="#bn"/><use transform="matrix(0.04320987654320988,0,0,0.04320987654320988,11.19135802469136,0)" xlink:href="#bo"/></g><path fill="#3a414a" d="M143 4C61 4 22-44 18-125c-5-107 100-154 193-111 17 8 29 25 37 43l-32 9c-13-25-37-40-76-40-61 0-88 39-88 99 0 61 29 100 91 101 35 0 62-11 79-27v-45h-74v-28h105v86C228-13 192 4 143 4" id="bp"/><g id="B"><use transform="matrix(0.06172839506172839,0,0,0.06172839506172839,0,0)" xlink:href="#bp"/><use transform="matrix(0.06172839506172839,0,0,0.06172839506172839,17.28395061728395,0)" xlink:href="#aT"/><use transform="matrix(0.06172839506172839,0,0,0.06172839506172839,24.629629629629626,0)" xlink:href="#aJ"/><use transform="matrix(0.06172839506172839,0,0,0.06172839506172839,36.9753086419753,0)" xlink:href="#aW"/><use transform="matrix(0.06172839506172839,0,0,0.06172839506172839,49.32098765432098,0)" xlink:href="#aL"/></g><g id="C"><use transform="matrix(0.06172839506172839,0,0,0.06172839506172839,0,0)" xlink:href="#aJ"/><use transform="matrix(0.06172839506172839,0,0,0.06172839506172839,12.345679012345679,0)" xlink:href="#aW"/></g><g id="D"><use transform="matrix(0.06172839506172839,0,0,0.06172839506172839,0,0)" xlink:href="#aN"/><use transform="matrix(0.06172839506172839,0,0,0.06172839506172839,12.345679012345679,0)" xlink:href="#bd"/><use transform="matrix(0.06172839506172839,0,0,0.06172839506172839,23.45679012345679,0)" xlink:href="#aL"/><use transform="matrix(0.06172839506172839,0,0,0.06172839506172839,29.62962962962963,0)" xlink:href="#aT"/><use transform="matrix(0.06172839506172839,0,0,0.06172839506172839,36.97530864197531,0)" xlink:href="#aJ"/></g><g id="E"><use transform="matrix(0.06172839506172839,0,0,0.06172839506172839,0,0)" xlink:href="#aV"/><use transform="matrix(0.06172839506172839,0,0,0.06172839506172839,11.11111111111111,0)" xlink:href="#aS"/><use transform="matrix(0.06172839506172839,0,0,0.06172839506172839,15.987654320987653,0)" xlink:href="#aJ"/></g><path fill="#3a414a" d="M205 0l-28-72H64L36 0H1l101-248h38L239 0h-34zm-38-99l-47-123c-12 45-31 82-46 123h93" id="bq"/><path fill="#3a414a" d="M64 0c3-98 48-159 88-221H18v-27h164v26C143-157 98-101 97 0H64" id="br"/><g id="F"><use transform="matrix(0.06172839506172839,0,0,0.06172839506172839,0,0)" xlink:href="#bq"/><use transform="matrix(0.06172839506172839,0,0,0.06172839506172839,14.814814814814813,0)" xlink:href="#br"/><use transform="matrix(0.06172839506172839,0,0,0.06172839506172839,27.160493827160494,0)" xlink:href="#aX"/></g><path fill="#3a414a" d="M197 0v-115H63V0H30v-248h33v105h134v-105h34V0h-34" id="bs"/><g id="G"><use transform="matrix(0.03703703703703702,0,0,0.03703703703703702,0,0)" xlink:href="#bs"/><use transform="matrix(0.03703703703703702,0,0,0.03703703703703702,9.592592592592588,0)" xlink:href="#aJ"/><use transform="matrix(0.03703703703703702,0,0,0.03703703703703702,16.999999999999993,0)" xlink:href="#aK"/></g><g id="H"><use transform="matrix(0.03703703703703702,0,0,0.03703703703703702,0,0)" xlink:href="#aJ"/><use transform="matrix(0.03703703703703702,0,0,0.03703703703703702,7.407407407407404,0)" xlink:href="#aL"/><use transform="matrix(0.03703703703703702,0,0,0.03703703703703702,11.111111111111107,0)" xlink:href="#aL"/><use transform="matrix(0.03703703703703702,0,0,0.03703703703703702,14.814814814814808,0)" xlink:href="#aN"/><use transform="matrix(0.03703703703703702,0,0,0.03703703703703702,22.222222222222214,0)" xlink:href="#aQ"/><use transform="matrix(0.03703703703703702,0,0,0.03703703703703702,33.296296296296276,0)" xlink:href="#aR"/><use transform="matrix(0.03703703703703702,0,0,0.03703703703703702,40.70370370370368,0)" xlink:href="#aL"/></g><g id="I"><use transform="matrix(0.03703703703703702,0,0,0.03703703703703702,0,0)" xlink:href="#bg"/><use transform="matrix(0.03703703703703702,0,0,0.03703703703703702,3.703703703703702,0)" xlink:href="#aS"/><use transform="matrix(0.03703703703703702,0,0,0.03703703703703702,6.629629629629625,0)" xlink:href="#aW"/><use transform="matrix(0.03703703703703702,0,0,0.03703703703703702,14.037037037037031,0)" xlink:href="#aS"/><use transform="matrix(0.03703703703703702,0,0,0.03703703703703702,16.962962962962955,0)" xlink:href="#aK"/><use transform="matrix(0.03703703703703702,0,0,0.03703703703703702,23.62962962962962,0)" xlink:href="#aM"/><use transform="matrix(0.03703703703703702,0,0,0.03703703703703702,31.037037037037024,0)" xlink:href="#aN"/><use transform="matrix(0.03703703703703702,0,0,0.03703703703703702,38.44444444444443,0)" xlink:href="#aU"/><use transform="matrix(0.03703703703703702,0,0,0.03703703703703702,45.85185185185183,0)" xlink:href="#ba"/></g><path fill="#3a414a" d="M30-248c118-7 216 8 213 122C240-48 200 0 122 0H30v-248zM63-27c89 8 146-16 146-99s-60-101-146-95v194" id="bt"/><g id="J"><use transform="matrix(0.030864197530864182,0,0,0.030864197530864182,0,0)" xlink:href="#bt"/><use transform="matrix(0.030864197530864182,0,0,0.030864197530864182,7.993827160493823,0)" xlink:href="#aS"/><use transform="matrix(0.030864197530864182,0,0,0.030864197530864182,10.432098765432094,0)" xlink:href="#aU"/></g><g id="K"><use transform="matrix(0.030864197530864182,0,0,0.030864197530864182,0,0)" xlink:href="#aL"/><use transform="matrix(0.030864197530864182,0,0,0.030864197530864182,3.0864197530864184,0)" xlink:href="#aM"/><use transform="matrix(0.030864197530864182,0,0,0.030864197530864182,9.259259259259256,0)" xlink:href="#aN"/></g><g id="L"><use transform="matrix(0.030864197530864182,0,0,0.030864197530864182,0,0)" xlink:href="#aO"/><use transform="matrix(0.030864197530864182,0,0,0.030864197530864182,5.555555555555553,0)" xlink:href="#aP"/><use transform="matrix(0.030864197530864182,0,0,0.030864197530864182,11.728395061728389,0)" xlink:href="#aQ"/><use transform="matrix(0.030864197530864182,0,0,0.030864197530864182,20.956790123456777,0)" xlink:href="#aR"/><use transform="matrix(0.030864197530864182,0,0,0.030864197530864182,27.129629629629612,0)" xlink:href="#aN"/><use transform="matrix(0.030864197530864182,0,0,0.030864197530864182,33.30246913580245,0)" xlink:href="#aL"/><use transform="matrix(0.030864197530864182,0,0,0.030864197530864182,36.388888888888864,0)" xlink:href="#aS"/><use transform="matrix(0.030864197530864182,0,0,0.030864197530864182,38.82716049382714,0)" xlink:href="#aL"/><use transform="matrix(0.030864197530864182,0,0,0.030864197530864182,41.913580246913554,0)" xlink:href="#aP"/><use transform="matrix(0.030864197530864182,0,0,0.030864197530864182,48.08641975308639,0)" xlink:href="#aT"/></g><g id="M"><use transform="matrix(0.030864197530864182,0,0,0.030864197530864182,0,0)" xlink:href="#aM"/><use transform="matrix(0.030864197530864182,0,0,0.030864197530864182,6.172839506172837,0)" xlink:href="#aJ"/><use transform="matrix(0.030864197530864182,0,0,0.030864197530864182,12.345679012345673,0)" xlink:href="#aV"/><use transform="matrix(0.030864197530864182,0,0,0.030864197530864182,17.901234567901227,0)" xlink:href="#aN"/></g><use transform="matrix(0.030864197530864182,0,0,0.030864197530864182,0,0)" xlink:href="#aJ" id="N"/><g id="O"><use transform="matrix(0.030864197530864182,0,0,0.030864197530864182,0,0)" xlink:href="#aT"/><use transform="matrix(0.030864197530864182,0,0,0.030864197530864182,3.6728395061728376,0)" xlink:href="#aN"/><use transform="matrix(0.030864197530864182,0,0,0.030864197530864182,9.845679012345673,0)" xlink:href="#aJ"/><use transform="matrix(0.030864197530864182,0,0,0.030864197530864182,16.018518518518512,0)" xlink:href="#aK"/><use transform="matrix(0.030864197530864182,0,0,0.030864197530864182,21.574074074074066,0)" xlink:href="#aP"/><use transform="matrix(0.030864197530864182,0,0,0.030864197530864182,27.746913580246904,0)" xlink:href="#aW"/><use transform="matrix(0.030864197530864182,0,0,0.030864197530864182,33.91975308641974,0)" xlink:href="#aJ"/><use transform="matrix(0.030864197530864182,0,0,0.030864197530864182,40.092592592592574,0)" xlink:href="#aY"/><use transform="matrix(0.030864197530864182,0,0,0.030864197530864182,46.26543209876541,0)" xlink:href="#bf"/><use transform="matrix(0.030864197530864182,0,0,0.030864197530864182,48.70370370370368,0)" xlink:href="#aN"/></g><g id="P"><use transform="matrix(0.030864197530864182,0,0,0.030864197530864182,0,0)" xlink:href="#aP"/><use transform="matrix(0.030864197530864182,0,0,0.030864197530864182,6.172839506172837,0)" xlink:href="#aR"/><use transform="matrix(0.030864197530864182,0,0,0.030864197530864182,12.345679012345673,0)" xlink:href="#aR"/><use transform="matrix(0.030864197530864182,0,0,0.030864197530864182,18.518518518518512,0)" xlink:href="#aP"/><use transform="matrix(0.030864197530864182,0,0,0.030864197530864182,24.691358024691347,0)" xlink:href="#aT"/><use transform="matrix(0.030864197530864182,0,0,0.030864197530864182,28.364197530864185,0)" xlink:href="#aL"/><use transform="matrix(0.030864197530864182,0,0,0.030864197530864182,31.450617283950603,0)" xlink:href="#be"/><use transform="matrix(0.030864197530864182,0,0,0.030864197530864182,37.62345679012344,0)" xlink:href="#aW"/><use transform="matrix(0.030864197530864182,0,0,0.030864197530864182,43.796296296296276,0)" xlink:href="#aS"/><use transform="matrix(0.030864197530864182,0,0,0.030864197530864182,46.23456790123455,0)" xlink:href="#aL"/><use transform="matrix(0.030864197530864182,0,0,0.030864197530864182,49.320987654320966,0)" xlink:href="#aZ"/></g><g id="Q"><use transform="matrix(0.030864197530864182,0,0,0.030864197530864182,0,0)" xlink:href="#aL"/><use transform="matrix(0.030864197530864182,0,0,0.030864197530864182,3.0864197530864184,0)" xlink:href="#aP"/></g><g id="R"><use transform="matrix(0.030864197530864182,0,0,0.030864197530864182,0,0)" xlink:href="#aO"/><use transform="matrix(0.030864197530864182,0,0,0.030864197530864182,5.555555555555553,0)" xlink:href="#aJ"/><use transform="matrix(0.030864197530864182,0,0,0.030864197530864182,11.728395061728389,0)" xlink:href="#bf"/><use transform="matrix(0.030864197530864182,0,0,0.030864197530864182,14.166666666666659,0)" xlink:href="#bf"/></g><use transform="matrix(0.030864197530864182,0,0,0.030864197530864182,0,0)" xlink:href="#aJ" id="S"/><g id="T"><use transform="matrix(0.030864197530864182,0,0,0.030864197530864182,0,0)" xlink:href="#aU"/><use transform="matrix(0.030864197530864182,0,0,0.030864197530864182,6.172839506172837,0)" xlink:href="#aN"/><use transform="matrix(0.030864197530864182,0,0,0.030864197530864182,12.345679012345673,0)" xlink:href="#bf"/><use transform="matrix(0.030864197530864182,0,0,0.030864197530864182,14.783950617283944,0)" xlink:href="#aN"/><use transform="matrix(0.030864197530864182,0,0,0.030864197530864182,20.95679012345678,0)" xlink:href="#aX"/><use transform="matrix(0.030864197530864182,0,0,0.030864197530864182,27.12962962962962,0)" xlink:href="#aJ"/><use transform="matrix(0.030864197530864182,0,0,0.030864197530864182,33.302469135802454,0)" xlink:href="#aL"/><use transform="matrix(0.030864197530864182,0,0,0.030864197530864182,36.38888888888887,0)" xlink:href="#aN"/></g><g id="U"><use transform="matrix(0.030864197530864182,0,0,0.030864197530864182,0,0)" xlink:href="#aP"/><use transform="matrix(0.030864197530864182,0,0,0.030864197530864182,6.172839506172837,0)" xlink:href="#aV"/><use transform="matrix(0.030864197530864182,0,0,0.030864197530864182,11.728395061728389,0)" xlink:href="#aN"/><use transform="matrix(0.030864197530864182,0,0,0.030864197530864182,17.901234567901227,0)" xlink:href="#aT"/></g><g id="V"><use transform="matrix(0.030864197530864182,0,0,0.030864197530864182,0,0)" xlink:href="#aU"/><use transform="matrix(0.030864197530864182,0,0,0.030864197530864182,6.172839506172837,0)" xlink:href="#be"/><use transform="matrix(0.030864197530864182,0,0,0.030864197530864182,12.345679012345673,0)" xlink:href="#aT"/><use transform="matrix(0.030864197530864182,0,0,0.030864197530864182,16.018518518518512,0)" xlink:href="#aS"/><use transform="matrix(0.030864197530864182,0,0,0.030864197530864182,18.456790123456784,0)" xlink:href="#aW"/><use transform="matrix(0.030864197530864182,0,0,0.030864197530864182,24.62962962962962,0)" xlink:href="#aX"/></g><g id="W"><use transform="matrix(0.030864197530864182,0,0,0.030864197530864182,0,0)" xlink:href="#aL"/><use transform="matrix(0.030864197530864182,0,0,0.030864197530864182,3.0864197530864184,0)" xlink:href="#aM"/><use transform="matrix(0.030864197530864182,0,0,0.030864197530864182,9.259259259259256,0)" xlink:href="#aN"/><use transform="matrix(0.030864197530864182,0,0,0.030864197530864182,15.432098765432093,0)" xlink:href="#aS"/><use transform="matrix(0.030864197530864182,0,0,0.030864197530864182,17.870370370370363,0)" xlink:href="#aT"/></g><g id="X"><use transform="matrix(0.030864197530864182,0,0,0.030864197530864182,0,0)" xlink:href="#aJ"/><use transform="matrix(0.030864197530864182,0,0,0.030864197530864182,6.172839506172837,0)" xlink:href="#aL"/><use transform="matrix(0.030864197530864182,0,0,0.030864197530864182,9.259259259259256,0)" xlink:href="#aL"/><use transform="matrix(0.030864197530864182,0,0,0.030864197530864182,12.345679012345673,0)" xlink:href="#aN"/><use transform="matrix(0.030864197530864182,0,0,0.030864197530864182,18.518518518518512,0)" xlink:href="#aQ"/><use transform="matrix(0.030864197530864182,0,0,0.030864197530864182,27.746913580246904,0)" xlink:href="#aR"/><use transform="matrix(0.030864197530864182,0,0,0.030864197530864182,33.91975308641974,0)" xlink:href="#aL"/><use transform="matrix(0.030864197530864182,0,0,0.030864197530864182,37.006172839506156,0)" xlink:href="#ba"/></g><g id="Y"><use transform="matrix(0.06172839506172839,0,0,0.06172839506172839,0,0)" xlink:href="#bb"/><use transform="matrix(0.06172839506172839,0,0,0.06172839506172839,15.987654320987653,0)" xlink:href="#aP"/></g><g id="Z"><use transform="matrix(0.06172839506172839,0,0,0.06172839506172839,0,0)" xlink:href="#bc"/><use transform="matrix(0.06172839506172839,0,0,0.06172839506172839,14.814814814814813,0)" xlink:href="#bd"/><use transform="matrix(0.06172839506172839,0,0,0.06172839506172839,25.925925925925924,0)" xlink:href="#aL"/><use transform="matrix(0.06172839506172839,0,0,0.06172839506172839,32.098765432098766,0)" xlink:href="#aT"/><use transform="matrix(0.06172839506172839,0,0,0.06172839506172839,39.44444444444444,0)" xlink:href="#aJ"/></g><g id="aa"><use transform="matrix(0.04938271604938272,0,0,0.04938271604938272,0,0)" xlink:href="#bn"/><use transform="matrix(0.04938271604938272,0,0,0.04938271604938272,12.790123456790125,0)" xlink:href="#bo"/></g><g id="ab"><use transform="matrix(0.06172839506172839,0,0,0.06172839506172839,0,0)" xlink:href="#aJ"/><use transform="matrix(0.06172839506172839,0,0,0.06172839506172839,12.345679012345679,0)" xlink:href="#aW"/></g><g id="ac"><use transform="matrix(0.06172839506172839,0,0,0.06172839506172839,0,0)" xlink:href="#aN"/><use transform="matrix(0.06172839506172839,0,0,0.06172839506172839,12.345679012345679,0)" xlink:href="#bd"/><use transform="matrix(0.06172839506172839,0,0,0.06172839506172839,23.45679012345679,0)" xlink:href="#aL"/><use transform="matrix(0.06172839506172839,0,0,0.06172839506172839,29.62962962962963,0)" xlink:href="#aT"/><use transform="matrix(0.06172839506172839,0,0,0.06172839506172839,36.97530864197531,0)" xlink:href="#aJ"/></g><g id="ad"><use transform="matrix(0.03703703703703702,0,0,0.03703703703703702,0,0)" xlink:href="#bt"/><use transform="matrix(0.03703703703703702,0,0,0.03703703703703702,9.592592592592588,0)" xlink:href="#aP"/></g><g id="ae"><use transform="matrix(0.03703703703703702,0,0,0.03703703703703702,0,0)" xlink:href="#aL"/><use transform="matrix(0.03703703703703702,0,0,0.03703703703703702,3.703703703703702,0)" xlink:href="#aM"/><use transform="matrix(0.03703703703703702,0,0,0.03703703703703702,11.111111111111107,0)" xlink:href="#aN"/></g><g id="af"><use transform="matrix(0.03703703703703702,0,0,0.03703703703703702,0,0)" xlink:href="#aT"/><use transform="matrix(0.03703703703703702,0,0,0.03703703703703702,4.407407407407406,0)" xlink:href="#aN"/><use transform="matrix(0.03703703703703702,0,0,0.03703703703703702,11.81481481481481,0)" xlink:href="#aX"/><use transform="matrix(0.03703703703703702,0,0,0.03703703703703702,19.222222222222214,0)" xlink:href="#be"/><use transform="matrix(0.03703703703703702,0,0,0.03703703703703702,26.62962962962962,0)" xlink:href="#bf"/><use transform="matrix(0.03703703703703702,0,0,0.03703703703703702,29.555555555555543,0)" xlink:href="#aJ"/><use transform="matrix(0.03703703703703702,0,0,0.03703703703703702,36.96296296296295,0)" xlink:href="#aL"/><use transform="matrix(0.03703703703703702,0,0,0.03703703703703702,40.66666666666665,0)" xlink:href="#aS"/><use transform="matrix(0.03703703703703702,0,0,0.03703703703703702,43.592592592592574,0)" xlink:href="#aP"/><use transform="matrix(0.03703703703703702,0,0,0.03703703703703702,50.99999999999998,0)" xlink:href="#aW"/><use transform="matrix(0.03703703703703702,0,0,0.03703703703703702,58.40740740740738,0)" xlink:href="#aK"/></g><g id="ag"><use transform="matrix(0.03703703703703702,0,0,0.03703703703703702,0,0)" xlink:href="#aP"/><use transform="matrix(0.03703703703703702,0,0,0.03703703703703702,7.407407407407404,0)" xlink:href="#aT"/></g><g id="ah"><use transform="matrix(0.03703703703703702,0,0,0.03703703703703702,0,0)" xlink:href="#aX"/><use transform="matrix(0.03703703703703702,0,0,0.03703703703703702,7.407407407407404,0)" xlink:href="#be"/><use transform="matrix(0.03703703703703702,0,0,0.03703703703703702,14.814814814814808,0)" xlink:href="#aS"/><use transform="matrix(0.03703703703703702,0,0,0.03703703703703702,17.740740740740733,0)" xlink:href="#aU"/><use transform="matrix(0.03703703703703702,0,0,0.03703703703703702,25.148148148148138,0)" xlink:href="#aN"/><use transform="matrix(0.03703703703703702,0,0,0.03703703703703702,32.55555555555554,0)" xlink:href="#bf"/><use transform="matrix(0.03703703703703702,0,0,0.03703703703703702,35.48148148148147,0)" xlink:href="#aS"/><use transform="matrix(0.03703703703703702,0,0,0.03703703703703702,38.40740740740739,0)" xlink:href="#aW"/><use transform="matrix(0.03703703703703702,0,0,0.03703703703703702,45.814814814814795,0)" xlink:href="#aN"/><use transform="matrix(0.03703703703703702,0,0,0.03703703703703702,53.2222222222222,0)" xlink:href="#aK"/></g><g id="ai"><use transform="matrix(0.03703703703703702,0,0,0.03703703703703702,0,0)" xlink:href="#aO"/><use transform="matrix(0.03703703703703702,0,0,0.03703703703703702,6.666666666666663,0)" xlink:href="#bf"/><use transform="matrix(0.03703703703703702,0,0,0.03703703703703702,9.592592592592588,0)" xlink:href="#aN"/><use transform="matrix(0.03703703703703702,0,0,0.03703703703703702,16.999999999999993,0)" xlink:href="#aJ"/><use transform="matrix(0.03703703703703702,0,0,0.03703703703703702,24.407407407407398,0)" xlink:href="#aT"/><use transform="matrix(0.03703703703703702,0,0,0.03703703703703702,28.814814814814802,0)" xlink:href="#bf"/><use transform="matrix(0.03703703703703702,0,0,0.03703703703703702,31.740740740740726,0)" xlink:href="#aZ"/></g><g id="aj"><use transform="matrix(0.03703703703703702,0,0,0.03703703703703702,0,0)" xlink:href="#aK"/><use transform="matrix(0.03703703703703702,0,0,0.03703703703703702,6.666666666666663,0)" xlink:href="#aL"/><use transform="matrix(0.03703703703703702,0,0,0.03703703703703702,10.370370370370367,0)" xlink:href="#aJ"/><use transform="matrix(0.03703703703703702,0,0,0.03703703703703702,17.777777777777768,0)" xlink:href="#aL"/><use transform="matrix(0.03703703703703702,0,0,0.03703703703703702,21.481481481481474,0)" xlink:href="#aN"/></g><g id="ak"><use transform="matrix(0.03703703703703702,0,0,0.03703703703703702,0,0)" xlink:href="#aR"/><use transform="matrix(0.03703703703703702,0,0,0.03703703703703702,7.407407407407404,0)" xlink:href="#aN"/><use transform="matrix(0.03703703703703702,0,0,0.03703703703703702,14.814814814814808,0)" xlink:href="#aW"/><use transform="matrix(0.03703703703703702,0,0,0.03703703703703702,22.222222222222214,0)" xlink:href="#aJ"/><use transform="matrix(0.03703703703703702,0,0,0.03703703703703702,29.629629629629616,0)" xlink:href="#bf"/><use transform="matrix(0.03703703703703702,0,0,0.03703703703703702,32.55555555555554,0)" xlink:href="#aL"/><use transform="matrix(0.03703703703703702,0,0,0.03703703703703702,36.259259259259245,0)" xlink:href="#aZ"/></g><g id="al"><use transform="matrix(0.03703703703703702,0,0,0.03703703703703702,0,0)" xlink:href="#bg"/><use transform="matrix(0.03703703703703702,0,0,0.03703703703703702,3.703703703703702,0)" xlink:href="#aP"/><use transform="matrix(0.03703703703703702,0,0,0.03703703703703702,11.111111111111107,0)" xlink:href="#aT"/></g><g id="am"><use transform="matrix(0.03703703703703702,0,0,0.03703703703703702,0,0)" xlink:href="#aL"/><use transform="matrix(0.03703703703703702,0,0,0.03703703703703702,3.703703703703702,0)" xlink:href="#aM"/><use transform="matrix(0.03703703703703702,0,0,0.03703703703703702,11.111111111111107,0)" xlink:href="#aN"/></g><g id="an"><use transform="matrix(0.03703703703703702,0,0,0.03703703703703702,0,0)" xlink:href="#aV"/><use transform="matrix(0.03703703703703702,0,0,0.03703703703703702,6.666666666666663,0)" xlink:href="#aS"/><use transform="matrix(0.03703703703703702,0,0,0.03703703703703702,9.592592592592588,0)" xlink:href="#aP"/><use transform="matrix(0.03703703703703702,0,0,0.03703703703703702,16.999999999999993,0)" xlink:href="#bf"/><use transform="matrix(0.03703703703703702,0,0,0.03703703703703702,19.925925925925917,0)" xlink:href="#aJ"/><use transform="matrix(0.03703703703703702,0,0,0.03703703703703702,27.33333333333332,0)" xlink:href="#aL"/><use transform="matrix(0.03703703703703702,0,0,0.03703703703703702,31.037037037037024,0)" xlink:href="#aS"/><use transform="matrix(0.03703703703703702,0,0,0.03703703703703702,33.96296296296295,0)" xlink:href="#aP"/><use transform="matrix(0.03703703703703702,0,0,0.03703703703703702,41.37037037037035,0)" xlink:href="#aW"/></g><g id="ao"><use transform="matrix(0.03703703703703702,0,0,0.03703703703703702,0,0)" xlink:href="#aP"/><use transform="matrix(0.03703703703703702,0,0,0.03703703703703702,7.407407407407404,0)" xlink:href="#bg"/></g><g id="ap"><use transform="matrix(0.03703703703703702,0,0,0.03703703703703702,0,0)" xlink:href="#aT"/><use transform="matrix(0.03703703703703702,0,0,0.03703703703703702,4.407407407407406,0)" xlink:href="#aN"/><use transform="matrix(0.03703703703703702,0,0,0.03703703703703702,11.81481481481481,0)" xlink:href="#aX"/><use transform="matrix(0.03703703703703702,0,0,0.03703703703703702,19.222222222222214,0)" xlink:href="#be"/><use transform="matrix(0.03703703703703702,0,0,0.03703703703703702,26.62962962962962,0)" xlink:href="#bf"/><use transform="matrix(0.03703703703703702,0,0,0.03703703703703702,29.555555555555543,0)" xlink:href="#aJ"/><use transform="matrix(0.03703703703703702,0,0,0.03703703703703702,36.96296296296295,0)" xlink:href="#aL"/><use transform="matrix(0.03703703703703702,0,0,0.03703703703703702,40.66666666666665,0)" xlink:href="#aS"/><use transform="matrix(0.03703703703703702,0,0,0.03703703703703702,43.592592592592574,0)" xlink:href="#aP"/><use transform="matrix(0.03703703703703702,0,0,0.03703703703703702,50.99999999999998,0)" xlink:href="#aW"/><use transform="matrix(0.03703703703703702,0,0,0.03703703703703702,58.40740740740738,0)" xlink:href="#ba"/></g><path fill="#3a414a" d="M63-220v92h138v28H63V0H30v-248h175v28H63" id="bu"/><g id="aq"><use transform="matrix(0.05555555555555554,0,0,0.05555555555555554,0,0)" xlink:href="#bu"/><use transform="matrix(0.05555555555555554,0,0,0.05555555555555554,12.166666666666663,0)" xlink:href="#aP"/><use transform="matrix(0.05555555555555554,0,0,0.05555555555555554,23.27777777777777,0)" xlink:href="#bf"/><use transform="matrix(0.05555555555555554,0,0,0.05555555555555554,27.666666666666657,0)" xlink:href="#bf"/><use transform="matrix(0.05555555555555554,0,0,0.05555555555555554,32.05555555555554,0)" xlink:href="#aP"/><use transform="matrix(0.05555555555555554,0,0,0.05555555555555554,43.16666666666665,0)" xlink:href="#bi"/></g><g id="ar"><use transform="matrix(0.05555555555555554,0,0,0.05555555555555554,0,0)" xlink:href="#aL"/><use transform="matrix(0.05555555555555554,0,0,0.05555555555555554,5.555555555555554,0)" xlink:href="#aM"/><use transform="matrix(0.05555555555555554,0,0,0.05555555555555554,16.66666666666666,0)" xlink:href="#aN"/></g><g id="as"><use transform="matrix(0.05555555555555554,0,0,0.05555555555555554,0,0)" xlink:href="#aT"/><use transform="matrix(0.05555555555555554,0,0,0.05555555555555554,6.611111111111109,0)" xlink:href="#aN"/><use transform="matrix(0.05555555555555554,0,0,0.05555555555555554,17.722222222222214,0)" xlink:href="#aX"/><use transform="matrix(0.05555555555555554,0,0,0.05555555555555554,28.833333333333325,0)" xlink:href="#be"/><use transform="matrix(0.05555555555555554,0,0,0.05555555555555554,39.94444444444443,0)" xlink:href="#bf"/><use transform="matrix(0.05555555555555554,0,0,0.05555555555555554,44.333333333333314,0)" xlink:href="#aJ"/><use transform="matrix(0.05555555555555554,0,0,0.05555555555555554,55.44444444444442,0)" xlink:href="#aL"/><use transform="matrix(0.05555555555555554,0,0,0.05555555555555554,60.99999999999997,0)" xlink:href="#aS"/><use transform="matrix(0.05555555555555554,0,0,0.05555555555555554,65.38888888888886,0)" xlink:href="#aP"/><use transform="matrix(0.05555555555555554,0,0,0.05555555555555554,76.49999999999997,0)" xlink:href="#aW"/><use transform="matrix(0.05555555555555554,0,0,0.05555555555555554,87.61111111111109,0)" xlink:href="#aK"/></g><g id="at"><use transform="matrix(0.05555555555555554,0,0,0.05555555555555554,0,0)" xlink:href="#aP"/><use transform="matrix(0.05555555555555554,0,0,0.05555555555555554,11.111111111111107,0)" xlink:href="#aT"/></g><g id="au"><use transform="matrix(0.05555555555555554,0,0,0.05555555555555554,0,0)" xlink:href="#aX"/><use transform="matrix(0.05555555555555554,0,0,0.05555555555555554,11.111111111111107,0)" xlink:href="#be"/><use transform="matrix(0.05555555555555554,0,0,0.05555555555555554,22.222222222222214,0)" xlink:href="#aS"/><use transform="matrix(0.05555555555555554,0,0,0.05555555555555554,26.6111111111111,0)" xlink:href="#aU"/><use transform="matrix(0.05555555555555554,0,0,0.05555555555555554,37.72222222222221,0)" xlink:href="#aN"/><use transform="matrix(0.05555555555555554,0,0,0.05555555555555554,48.833333333333314,0)" xlink:href="#bf"/><use transform="matrix(0.05555555555555554,0,0,0.05555555555555554,53.2222222222222,0)" xlink:href="#aS"/><use transform="matrix(0.05555555555555554,0,0,0.05555555555555554,57.61111111111108,0)" xlink:href="#aW"/><use transform="matrix(0.05555555555555554,0,0,0.05555555555555554,68.7222222222222,0)" xlink:href="#aN"/><use transform="matrix(0.05555555555555554,0,0,0.05555555555555554,79.83333333333331,0)" xlink:href="#aK"/></g><g id="av"><use transform="matrix(0.049382716049382706,0,0,0.049382716049382706,0,0)" xlink:href="#bj"/><use transform="matrix(0.049382716049382706,0,0,0.049382716049382706,10.864197530864196,0)" xlink:href="#bk"/><use transform="matrix(0.049382716049382706,0,0,0.049382716049382706,20.740740740740737,0)" xlink:href="#bl"/></g><g id="aw"><use transform="matrix(0.03703703703703702,0,0,0.03703703703703702,0,0)" xlink:href="#bt"/><use transform="matrix(0.03703703703703702,0,0,0.03703703703703702,9.592592592592588,0)" xlink:href="#aP"/><use transform="matrix(0.03703703703703702,0,0,0.03703703703703702,16.999999999999993,0)" xlink:href="#aN"/><use transform="matrix(0.03703703703703702,0,0,0.03703703703703702,24.407407407407398,0)" xlink:href="#aK"/></g><g id="ax"><use transform="matrix(0.03703703703703702,0,0,0.03703703703703702,0,0)" xlink:href="#aS"/><use transform="matrix(0.03703703703703702,0,0,0.03703703703703702,2.9259259259259247,0)" xlink:href="#aW"/><use transform="matrix(0.03703703703703702,0,0,0.03703703703703702,10.333333333333329,0)" xlink:href="#aO"/><use transform="matrix(0.03703703703703702,0,0,0.03703703703703702,16.999999999999993,0)" xlink:href="#aS"/><use transform="matrix(0.03703703703703702,0,0,0.03703703703703702,19.925925925925917,0)" xlink:href="#aU"/><use transform="matrix(0.03703703703703702,0,0,0.03703703703703702,27.33333333333332,0)" xlink:href="#aN"/><use transform="matrix(0.03703703703703702,0,0,0.03703703703703702,34.740740740740726,0)" xlink:href="#aW"/><use transform="matrix(0.03703703703703702,0,0,0.03703703703703702,42.14814814814813,0)" xlink:href="#aL"/></g><g id="ay"><use transform="matrix(0.03703703703703702,0,0,0.03703703703703702,0,0)" xlink:href="#bf"/><use transform="matrix(0.03703703703703702,0,0,0.03703703703703702,2.9259259259259247,0)" xlink:href="#aP"/><use transform="matrix(0.03703703703703702,0,0,0.03703703703703702,10.333333333333329,0)" xlink:href="#aX"/></g><g id="az"><use transform="matrix(0.03703703703703702,0,0,0.03703703703703702,0,0)" xlink:href="#aM"/><use transform="matrix(0.03703703703703702,0,0,0.03703703703703702,7.407407407407404,0)" xlink:href="#aJ"/><use transform="matrix(0.03703703703703702,0,0,0.03703703703703702,14.814814814814808,0)" xlink:href="#aV"/><use transform="matrix(0.03703703703703702,0,0,0.03703703703703702,21.481481481481474,0)" xlink:href="#aN"/></g><g id="aA"><use transform="matrix(0.03703703703703702,0,0,0.03703703703703702,0,0)" xlink:href="#aK"/><use transform="matrix(0.03703703703703702,0,0,0.03703703703703702,6.666666666666663,0)" xlink:href="#aS"/><use transform="matrix(0.03703703703703702,0,0,0.03703703703703702,9.592592592592588,0)" xlink:href="#aQ"/><use transform="matrix(0.03703703703703702,0,0,0.03703703703703702,20.666666666666657,0)" xlink:href="#aS"/><use transform="matrix(0.03703703703703702,0,0,0.03703703703703702,23.59259259259258,0)" xlink:href="#bf"/><use transform="matrix(0.03703703703703702,0,0,0.03703703703703702,26.5185185185185,0)" xlink:href="#aJ"/><use transform="matrix(0.03703703703703702,0,0,0.03703703703703702,33.92592592592591,0)" xlink:href="#aT"/></g><g id="aB"><use transform="matrix(0.04320987654320985,0,0,0.04320987654320985,0,0)" xlink:href="#bu"/><use transform="matrix(0.04320987654320985,0,0,0.04320987654320985,9.462962962962958,0)" xlink:href="#aP"/><use transform="matrix(0.04320987654320985,0,0,0.04320987654320985,18.10493827160493,0)" xlink:href="#bf"/><use transform="matrix(0.04320987654320985,0,0,0.04320987654320985,21.51851851851851,0)" xlink:href="#bf"/><use transform="matrix(0.04320987654320985,0,0,0.04320987654320985,24.932098765432084,0)" xlink:href="#aP"/><use transform="matrix(0.04320987654320985,0,0,0.04320987654320985,33.57407407407406,0)" xlink:href="#bi"/></g><g id="aC"><use transform="matrix(0.04320987654320985,0,0,0.04320987654320985,0,0)" xlink:href="#aL"/><use transform="matrix(0.04320987654320985,0,0,0.04320987654320985,4.3209876543209855,0)" xlink:href="#aM"/><use transform="matrix(0.04320987654320985,0,0,0.04320987654320985,12.962962962962957,0)" xlink:href="#aN"/></g><g id="aD"><use transform="matrix(0.04320987654320985,0,0,0.04320987654320985,0,0)" xlink:href="#aR"/><use transform="matrix(0.04320987654320985,0,0,0.04320987654320985,8.641975308641971,0)" xlink:href="#aT"/><use transform="matrix(0.04320987654320985,0,0,0.04320987654320985,13.783950617283944,0)" xlink:href="#aN"/><use transform="matrix(0.04320987654320985,0,0,0.04320987654320985,22.42592592592592,0)" xlink:href="#aO"/><use transform="matrix(0.04320987654320985,0,0,0.04320987654320985,30.203703703703688,0)" xlink:href="#aN"/><use transform="matrix(0.04320987654320985,0,0,0.04320987654320985,38.845679012345656,0)" xlink:href="#aU"/><use transform="matrix(0.04320987654320985,0,0,0.04320987654320985,47.48765432098763,0)" xlink:href="#aN"/><use transform="matrix(0.04320987654320985,0,0,0.04320987654320985,56.12962962962961,0)" xlink:href="#aW"/><use transform="matrix(0.04320987654320985,0,0,0.04320987654320985,64.77160493827158,0)" xlink:href="#aL"/></g><g id="aE"><use transform="matrix(0.04320987654320985,0,0,0.04320987654320985,0,0)" xlink:href="#aN"/><use transform="matrix(0.04320987654320985,0,0,0.04320987654320985,8.641975308641971,0)" xlink:href="#aK"/><use transform="matrix(0.04320987654320985,0,0,0.04320987654320985,16.419753086419746,0)" xlink:href="#aL"/><use transform="matrix(0.04320987654320985,0,0,0.04320987654320985,20.740740740740733,0)" xlink:href="#aJ"/><use transform="matrix(0.04320987654320985,0,0,0.04320987654320985,29.382716049382704,0)" xlink:href="#aY"/><use transform="matrix(0.04320987654320985,0,0,0.04320987654320985,38.024691358024675,0)" xlink:href="#bf"/><use transform="matrix(0.04320987654320985,0,0,0.04320987654320985,41.43827160493825,0)" xlink:href="#aS"/><use transform="matrix(0.04320987654320985,0,0,0.04320987654320985,44.851851851851826,0)" xlink:href="#aK"/><use transform="matrix(0.04320987654320985,0,0,0.04320987654320985,52.629629629629605,0)" xlink:href="#aM"/><use transform="matrix(0.04320987654320985,0,0,0.04320987654320985,61.271604938271565,0)" xlink:href="#aN"/><use transform="matrix(0.04320987654320985,0,0,0.04320987654320985,69.91358024691354,0)" xlink:href="#aU"/></g><g id="aF"><use transform="matrix(0.04320987654320985,0,0,0.04320987654320985,0,0)" xlink:href="#aS"/><use transform="matrix(0.04320987654320985,0,0,0.04320987654320985,3.4135802469135785,0)" xlink:href="#aW"/></g><g id="aG"><use transform="matrix(0.04320987654320985,0,0,0.04320987654320985,0,0)" xlink:href="#aS"/><use transform="matrix(0.04320987654320985,0,0,0.04320987654320985,3.4135802469135785,0)" xlink:href="#aW"/><use transform="matrix(0.04320987654320985,0,0,0.04320987654320985,12.055555555555548,0)" xlink:href="#aO"/><use transform="matrix(0.04320987654320985,0,0,0.04320987654320985,19.83333333333332,0)" xlink:href="#aS"/><use transform="matrix(0.04320987654320985,0,0,0.04320987654320985,23.2469135802469,0)" xlink:href="#aU"/><use transform="matrix(0.04320987654320985,0,0,0.04320987654320985,31.88888888888887,0)" xlink:href="#aN"/><use transform="matrix(0.04320987654320985,0,0,0.04320987654320985,40.530864197530846,0)" xlink:href="#aW"/><use transform="matrix(0.04320987654320985,0,0,0.04320987654320985,49.17283950617282,0)" xlink:href="#aL"/></g><g id="aH"><use transform="matrix(0.04320987654320985,0,0,0.04320987654320985,0,0)" xlink:href="#bf"/><use transform="matrix(0.04320987654320985,0,0,0.04320987654320985,3.4135802469135785,0)" xlink:href="#aP"/><use transform="matrix(0.04320987654320985,0,0,0.04320987654320985,12.055555555555548,0)" xlink:href="#aX"/></g></defs></g></svg>